<svg version="1.1" id="Layer_1" xmlns="http://www.w3.org/2000/svg" xmlns:xlink="http://www.w3.org/1999/xlink" x="0px" y="0px"
	 width="100%" viewBox="0 0 502 646" enable-background="new 0 0 502 646" xml:space="preserve">
<path fill="#000000" opacity="1.000000" stroke="none" 
	d="
M321.000000,647.000000 
	C214.023178,647.000000 107.546356,647.000000 1.034764,647.000000 
	C1.034764,431.736694 1.034764,216.473404 1.034764,1.105054 
	C168.226822,1.105054 335.453735,1.105054 502.840332,1.105054 
	C502.840332,216.333237 502.840332,431.666595 502.840332,647.000000 
	C442.473358,647.000000 381.986694,647.000000 321.000000,647.000000 
M364.500000,461.012421 
	C383.359222,461.012421 402.218414,461.012421 421.077637,461.012421 
	C421.162781,460.530762 421.247925,460.049133 421.333038,459.567474 
	C420.091705,459.116058 418.884247,458.488190 417.603424,458.242188 
	C409.932739,456.768768 402.286499,455.062683 394.550690,454.066223 
	C387.971649,453.218811 382.597076,450.698730 378.022430,445.913910 
	C364.327484,431.589752 349.805908,417.990143 336.887238,403.004089 
	C313.837677,376.265930 291.560059,348.854126 269.297516,321.449554 
	C259.169220,308.981903 249.846771,295.859589 240.099594,282.955872 
	C244.434219,278.999573 247.887329,275.876190 251.309830,272.719604 
	C281.193420,245.157822 311.064636,217.582611 340.959167,190.032730 
	C345.150360,186.170242 349.599518,183.190552 355.690765,182.499420 
	C364.758820,181.470535 373.724274,179.521164 382.720825,177.894012 
	C384.303589,177.607727 385.824738,176.981033 387.374359,176.511551 
	C387.264648,176.140259 387.154938,175.768982 387.045258,175.397705 
	C349.981598,175.397705 312.917969,175.397705 275.854309,175.397705 
	C275.783539,175.900925 275.712738,176.404129 275.641937,176.907349 
	C290.679260,179.380692 305.716553,181.854050 321.740234,184.489639 
	C281.473846,228.872620 239.530975,269.939972 192.236618,306.860931 
	C191.840866,264.881317 191.655441,224.477798 196.859055,184.343994 
	C214.213760,181.815598 230.978882,179.373108 247.744003,176.930603 
	C247.688263,176.493988 247.632507,176.057388 247.576767,175.620773 
	C198.724747,175.620773 149.872726,175.620773 101.020706,175.620773 
	C100.978989,176.054718 100.937271,176.488663 100.895554,176.922623 
	C108.505676,178.199478 116.109268,179.516907 123.727745,180.741821 
	C131.394516,181.974503 139.076080,183.115219 147.541306,184.417801 
	C155.378708,274.176483 154.059082,363.512238 145.768356,452.751984 
	C130.031586,454.979889 115.457863,457.043121 100.884140,459.106384 
	C100.944389,459.578094 101.004631,460.049835 101.064880,460.521545 
	C149.705658,460.521545 198.346451,460.521545 246.987228,460.521545 
	C247.053986,460.110596 247.120743,459.699615 247.187515,459.288666 
	C245.543533,458.932037 243.915070,458.459717 242.253128,458.237152 
	C228.901810,456.448761 215.561142,454.558044 202.178482,453.040039 
	C197.991760,452.565125 196.346863,451.107880 195.882996,446.724579 
	C191.807022,408.210999 191.272568,369.581940 191.704285,330.915649 
	C191.721100,329.409698 192.165634,327.460144 193.162476,326.488129 
	C198.605774,321.180450 204.284515,316.114166 210.230209,310.644897 
	C250.720825,355.227783 289.074829,400.889191 321.580597,451.991394 
	C308.630615,454.474854 296.440094,456.812683 284.249542,459.150513 
	C284.319702,459.771149 284.389862,460.391785 284.460022,461.012421 
	C310.806671,461.012421 337.153351,461.012421 364.500000,461.012421 
z"/>
<path fill="#F8F8F8" opacity="1.000000" stroke="none" 
	d="
M364.000000,461.012421 
	C337.153351,461.012421 310.806671,461.012421 284.460022,461.012421 
	C284.389862,460.391785 284.319702,459.771149 284.249542,459.150513 
	C296.440094,456.812683 308.630615,454.474854 321.580597,451.991394 
	C289.074829,400.889191 250.720825,355.227783 210.230209,310.644897 
	C204.284515,316.114166 198.605774,321.180450 193.162476,326.488129 
	C192.165634,327.460144 191.721100,329.409698 191.704285,330.915649 
	C191.272568,369.581940 191.807022,408.210999 195.882996,446.724579 
	C196.346863,451.107880 197.991760,452.565125 202.178482,453.040039 
	C215.561142,454.558044 228.901810,456.448761 242.253128,458.237152 
	C243.915070,458.459717 245.543533,458.932037 247.187515,459.288666 
	C247.120743,459.699615 247.053986,460.110596 246.987228,460.521545 
	C198.346451,460.521545 149.705658,460.521545 101.064880,460.521545 
	C101.004631,460.049835 100.944389,459.578094 100.884140,459.106384 
	C115.457863,457.043121 130.031586,454.979889 145.768356,452.751984 
	C154.059082,363.512238 155.378708,274.176483 147.541306,184.417801 
	C139.076080,183.115219 131.394516,181.974503 123.727745,180.741821 
	C116.109268,179.516907 108.505676,178.199478 100.895554,176.922623 
	C100.937271,176.488663 100.978989,176.054718 101.020706,175.620773 
	C149.872726,175.620773 198.724747,175.620773 247.576767,175.620773 
	C247.632507,176.057388 247.688263,176.493988 247.744003,176.930603 
	C230.978882,179.373108 214.213760,181.815598 196.859055,184.343994 
	C191.655441,224.477798 191.840866,264.881317 192.236618,306.860931 
	C239.530975,269.939972 281.473846,228.872620 321.740234,184.489639 
	C305.716553,181.854050 290.679260,179.380692 275.641937,176.907349 
	C275.712738,176.404129 275.783539,175.900925 275.854309,175.397705 
	C312.917969,175.397705 349.981598,175.397705 387.045258,175.397705 
	C387.154938,175.768982 387.264648,176.140259 387.374359,176.511551 
	C385.824738,176.981033 384.303589,177.607727 382.720825,177.894012 
	C373.724274,179.521164 364.758820,181.470535 355.690765,182.499420 
	C349.599518,183.190552 345.150360,186.170242 340.959167,190.032730 
	C311.064636,217.582611 281.193420,245.157822 251.309830,272.719604 
	C247.887329,275.876190 244.434219,278.999573 240.099594,282.955872 
	C249.846771,295.859589 259.169220,308.981903 269.297516,321.449554 
	C291.560059,348.854126 313.837677,376.265930 336.887238,403.004089 
	C349.805908,417.990143 364.327484,431.589752 378.022430,445.913910 
	C382.597076,450.698730 387.971649,453.218811 394.550690,454.066223 
	C402.286499,455.062683 409.932739,456.768768 417.603424,458.242188 
	C418.884247,458.488190 420.091705,459.116058 421.333038,459.567474 
	C421.247925,460.049133 421.162781,460.530762 421.077637,461.012421 
	C402.218414,461.012421 383.359222,461.012421 364.000000,461.012421 
M157.741989,245.499863 
	C157.741989,314.885223 157.741989,384.270569 157.741989,453.651215 
	C162.616592,453.651215 166.739639,453.651215 171.139557,453.651215 
	C171.139557,363.410339 171.139557,273.360657 171.139557,183.198517 
	C166.633926,183.198517 162.254562,183.198517 157.741989,183.198517 
	C157.741989,203.860611 157.741989,224.180222 157.741989,245.499863 
M339.325562,437.181610 
	C300.693573,390.330933 262.061554,343.480255 223.642929,296.888336 
	C220.529617,299.802521 217.683304,302.466797 214.899338,305.072723 
	C215.019302,305.404755 215.037704,305.587463 215.134705,305.705597 
	C255.089828,354.353363 295.043701,403.002106 335.055695,451.603027 
	C335.903839,452.633270 337.390381,453.671478 338.635742,453.744873 
	C343.042633,454.004486 347.474152,453.845978 352.964600,453.845978 
	C348.105774,447.896637 343.950348,442.808594 339.325562,437.181610 
z"/>
<path fill="#000000" opacity="1.000000" stroke="none" 
	d="
M157.741989,244.999847 
	C157.741989,224.180222 157.741989,203.860611 157.741989,183.198517 
	C162.254562,183.198517 166.633926,183.198517 171.139557,183.198517 
	C171.139557,273.360657 171.139557,363.410339 171.139557,453.651215 
	C166.739639,453.651215 162.616592,453.651215 157.741989,453.651215 
	C157.741989,384.270569 157.741989,314.885223 157.741989,244.999847 
z"/>
<path fill="#050505" opacity="1.000000" stroke="none" 
	d="
M339.560242,437.451050 
	C343.950348,442.808594 348.105774,447.896637 352.964600,453.845978 
	C347.474152,453.845978 343.042633,454.004486 338.635742,453.744873 
	C337.390381,453.671478 335.903839,452.633270 335.055695,451.603027 
	C295.043701,403.002106 255.089828,354.353363 215.134705,305.705597 
	C215.037704,305.587463 215.019302,305.404755 214.899338,305.072723 
	C217.683304,302.466797 220.529617,299.802521 223.642929,296.888336 
	C262.061554,343.480255 300.693573,390.330933 339.560242,437.451050 
z"/>
</svg>